PathFileType	4	(X/Y/Z)	C:/Users/beibeiliu/ov580/test_trc/User3\sequence.14_training_dense_right.trc
DataRate	CameraRate	NumFrames	NumMarkers	Units	OrigDataRate	OrigDataStartFrame	OrigNumFrames
120	120	10	19	mm	120	1	84
Frame#	Time	ThumbCMC			ThumbMCP			ThumbIP			ThumbTip			IndexMCP			IndexPIP			IndexTip			MiddleMCP			MiddlePIP			MiddleTip			RingMCP			RingPIP			RingTip			PinkyMCP			PinkyPIP			PinkyTip			BackHand1			BackHand2			BackHand3	
		X0	Y0	Z0	X1	Y1	Z1	X2	Y2	Z2	X3	Y3	Z3	X4	Y4	Z4	X5	Y5	Z5	X6	Y6	Z6	X7	Y7	Z7	X8	Y8	Z8	X9	Y9	Z9	X10	Y10	Z10	X11	Y11	Z11	X12	Y12	Z12	X13	Y13	Z13	X14	Y14	Z14	X15	Y15	Z15	X16	Y16	Z16	X17	Y17	Z17	X18	Y18	Z18	
0	0	127.521	34.124	30.9537	101.8	24.5176	10.3048	86.5576	14.3545	-14.0436	78.9109	3.84868	-32.962	135.804	42.7968	-46.7125	125.358	37.0458	-74.4833	115.443	33.5256	-93.7273	164.836	39.2195	-53.633	157.463	34.6728	-81.0205	155.183	23.7064	-111.539	181.708	30.4319	-46.166	183.035	26.7999	-72.52	185.8	17.4746	-99.1665	199.552	19.5592	-29.5215	209.343	16.1352	-50.1973	218.426	10.9279	-69.0642	184.972	42.7218	3.49506	187.864	48.3731	34.0939	155.189	54.1237	19.658	
1	0.00833333	125.385	34.2443	26.1272	106.27	23.8512	11.0155	88.5755	14.0946	-15.665	76.2696	3.57059	-30.2755	135.987	41.8062	-46.6802	123.89	38.6337	-73.8604	118.859	31.4002	-97.7241	161.408	39.667	-52.5161	156.659	33.7148	-84.9883	154.709	23.4558	-113.607	179.527	31.2222	-48.4666	187.137	25.6771	-69.5598	184.167	17.5363	-98.8236	198.897	18.7304	-29.095	209.924	15.4498	-51.429	214.668	10.1143	-73.2311	184.706	42.0631	3.40862	188.066	47.128	33.4634	154.902	54.9624	16.2379	
2	0.0166667	124.839	34.162	31.522	106.81	22.6685	8.46694	87.7189	13.6576	-14.7572	79.7889	3.48132	-32.1703	136.66	41.0199	-47.1205	124.437	38.41	-70.035	120.855	31.637	-94.7762	161.528	38.8544	-57.4524	156.9	33.465	-84.3783	155.472	21.9139	-114.7	182.466	29.6941	-46.934	183.247	26.0218	-69.3482	184.912	16.3424	-97.1343	199.813	19.6964	-30.0987	209.693	14.0249	-48.6061	215.6	10.0668	-68.9001	185.766	41.7178	2.38597	191.227	46.8137	30.7154	157.112	54.5253	17.7043	
3	0.025	123.627	33.7019	28.5215	104.715	22.9597	10.9795	88.6779	13.4141	-16.6101	77.8453	2.60446	-33.3158	135.082	41.2291	-44.9615	124.121	36.6461	-74.2136	121.992	30.198	-96.645	165.797	37.7624	-55.2682	161.077	31.64	-85.2184	158.362	20.7572	-112.506	181.278	30.7641	-48.2947	184.868	25.4608	-73.0973	183.935	16.3171	-97.4373	199.869	19.0131	-28.4837	208.844	14.1951	-46.329	218.336	8.17334	-71.68	183.369	43.8739	2.45945	189.149	45.1886	33.9051	152.95	53.7219	14.4077	
4	0.0333333	122.703	34.5007	26.9599	105.892	22.7945	9.58827	88.4893	13.6416	-15.3307	78.954	2.17383	-34.2565	136.415	41.0338	-49.1184	124.822	38.0539	-71.5471	122.486	29.6064	-95.9642	161.682	38.9804	-51.948	159.129	31.3822	-84.9241	155.933	23.0082	-111.109	180.769	29.2776	-43.4565	182.274	25.3403	-73.6165	184.793	16.7889	-99.0563	201.115	17.4142	-25.8262	210.749	14.2576	-50.7263	218.672	6.79576	-71.4961	184.009	42.9471	5.66305	192.341	46.419	33.5872	158.326	52.6109	18.0192	
5	0.0416667	123.837	33.5468	25.5735	108.514	21.7672	8.34403	91.7823	12.3044	-11.8852	81.2973	1.95516	-31.507	134.369	41.1845	-47.3713	129.165	36.3773	-74.6713	116.886	30.5191	-98.2617	164.697	38.4826	-52.5847	162.47	32.5131	-81.8706	156.042	23.55	-109.574	180.574	30.2013	-47.3159	186.126	25.6101	-70.6156	183.342	17.2921	-95.0983	203.951	18.2616	-29.2729	209.265	15.4225	-47.7317	221.67	8.06897	-72.5601	188.529	41.3711	2.85792	189.836	45.9568	30.8147	158.399	52.615	13.9788	
6	0.05	126.274	32.7131	25.7402	105.596	22.2734	8.6676	88.4532	11.764	-16.0343	80.1497	-0.198858	-32.9763	135.86	42.1922	-48.348	124.404	38.1694	-74.6194	122.903	30.3601	-98.1209	161.989	40.8057	-54.2649	159.739	33.388	-82.3324	155.893	22.0612	-111.699	184.756	31.1291	-47.7661	186.868	25.5813	-71.5832	186.079	15.5271	-95.7818	201.018	20.1611	-27.8314	213.228	14.6124	-50.0621	221.01	8.39259	-73.718	185.44	45.1838	5.39928	187.515	47.5533	33.0503	156.025	53.7318	14.6873	
7	0.0583333	125.882	32.6475	29.5342	107.736	20.4463	6.5585	93.8253	8.94693	-17.9735	86.972	-2.98529	-38.8084	134.937	45.163	-48.6348	128.58	37.7278	-76.8588	121.835	30.3763	-100.58	164.028	41.0303	-56.1357	159.401	32.4758	-84.186	156.722	14.4607	-114.302	185.299	31.9898	-48.7144	187.079	24.4567	-73.8539	180.825	11.5454	-95.7318	201.698	22.5547	-26.8421	210.169	18.936	-48.0629	221.096	11.8079	-72.3114	185.596	47.7686	1.38223	188.9	49.0584	35.2859	154.492	56.3673	18.2255	
8	0.0666667	130.197	32.7854	24.7573	110.598	19.6666	5.76431	101.22	8.132	-18.6294	96.2027	-4.98784	-40.0782	138.823	47.2566	-49.1013	129.995	42.097	-75.0629	126.374	32.4376	-95.8663	165.537	43.7512	-54.193	159.07	29.2238	-85.1822	151.392	7.63573	-102.776	182.801	36.2849	-44.1836	182.926	25.4085	-71.6982	175.747	-1.33992	-91.009	203.855	25.3759	-28.0087	209.144	21.6073	-51.5474	218.725	11.39	-70.9543	191.292	48.0693	4.1432	193.51	48.1169	33.3271	159.523	56.1311	20.4567	
9	0.075	129.77	35.0297	29.9323	113.791	18.8095	3.84573	106.215	7.17005	-21.3358	108.145	-6.09956	-45.3832	143.311	51.3741	-47.9988	131.467	46.5461	-71.164	126.969	31.5323	-96.7902	162.476	46.5209	-55.9282	156.257	25.3427	-81.8881	145.35	-5.12932	-86.7931	183.789	37.1246	-44.289	179.159	21.6241	-70.5473	166.891	-9.37799	-73.4453	205.795	27.0515	-27.9367	208.869	24.2609	-52.1326	209.646	14.689	-75.1348	187.46	48.1361	7.53602	194.902	47.8183	33.0391	163.785	59.1853	22.4283	
